<svg width="61" height="61" viewBox="0 0 61 61" fill="none" xmlns="http://www.w3.org/2000/svg">
<path d="M9.7675 54.7675L17.185 47.35C20.3036 49.3915 23.9578 50.4617 27.685 50.425C30.6511 50.3888 33.58 49.759 36.2988 48.5726C39.0176 47.3863 41.4712 45.6674 43.515 43.5175C53.0475 34 55.395 9.275 55.5 8.225C55.534 7.85902 55.4869 7.49004 55.362 7.14435C55.2371 6.79866 55.0375 6.48476 54.7775 6.225C54.5164 5.96678 54.2023 5.76842 53.857 5.64366C53.5117 5.5189 53.1433 5.47074 52.7775 5.5025C47.9817 6.00254 43.2222 6.80497 38.5275 7.905C38.1198 8.00081 37.7426 8.19754 37.4307 8.47711C37.1188 8.75668 36.8822 9.11013 36.7425 9.505L35.12 14.09L33.7725 11.3775C33.5022 10.8352 33.0443 10.4096 32.4837 10.1797C31.9232 9.94973 31.2982 9.9312 30.725 10.1275C25.8221 11.5657 21.3004 14.0763 17.4875 17.4775C8.56 26.405 9.4475 37.6425 13.65 43.815L6.2325 51.2325C5.7771 51.704 5.52512 52.3355 5.53081 52.991C5.53651 53.6465 5.79943 54.2735 6.26295 54.737C6.72647 55.2006 7.3535 55.4635 8.009 55.4692C8.66449 55.4749 9.29599 55.2229 9.7675 54.7675ZM21.0175 21.0175C23.7081 18.6073 26.8589 16.7669 30.28 15.6075L33.26 21.6075C33.4719 22.0538 33.8138 22.4255 34.2407 22.674C34.6677 22.9225 35.1598 23.0362 35.6525 23C36.1423 22.9696 36.6123 22.7958 37.0039 22.5002C37.3956 22.2045 37.6916 21.8002 37.855 21.3375L41 12.4775C44.6125 11.6825 47.895 11.165 50.15 10.86C49.2325 17.595 46.45 33.525 39.9925 39.9825C33.0225 46.9525 25.13 46.125 20.8225 43.7325L32.2775 32.2775C32.7329 31.806 32.9849 31.1745 32.9792 30.519C32.9735 29.8635 32.7106 29.2365 32.247 28.773C31.7835 28.3094 31.1565 28.0465 30.501 28.0408C29.8455 28.0351 29.214 28.2871 28.7425 28.7425L17.2775 40.1875C14.8775 35.8775 14.05 28 21.0175 21.0175Z" fill="black"/>
</svg>
